<?xml version="1.0" encoding="UTF-8" standalone="no"?>
<svg
   xmlns:dc="http://purl.org/dc/elements/1.1/"
   xmlns:cc="http://creativecommons.org/ns#"
   xmlns:rdf="http://www.w3.org/1999/02/22-rdf-syntax-ns#"
   xmlns:svg="http://www.w3.org/2000/svg"
   xmlns="http://www.w3.org/2000/svg"
   xmlns:sodipodi="http://sodipodi.sourceforge.net/DTD/sodipodi-0.dtd"
   xmlns:inkscape="http://www.inkscape.org/namespaces/inkscape"
   id="svg1044"
   version="1.1"
   viewBox="0 0 194.39995 44.590099"
   height="44.590099mm"
   width="194.39995mm"
   sodipodi:docname="logo.svg"
   inkscape:version="0.92.2 (5c3e80d, 2017-08-06)">
  <sodipodi:namedview
     pagecolor="#ffffff"
     bordercolor="#666666"
     borderopacity="1"
     objecttolerance="10"
     gridtolerance="10"
     guidetolerance="10"
     inkscape:pageopacity="0"
     inkscape:pageshadow="2"
     inkscape:window-width="2560"
     inkscape:window-height="1358"
     id="namedview19"
     showgrid="false"
     inkscape:zoom="0.81525442"
     inkscape:cx="90.155905"
     inkscape:cy="84.264755"
     inkscape:window-x="-9"
     inkscape:window-y="-9"
     inkscape:window-maximized="1"
     inkscape:current-layer="svg1044" />
  <defs
     id="defs1038" />
  <metadata
     id="metadata1041">
    <rdf:RDF>
      <cc:Work
         rdf:about="">
        <dc:format>image/svg+xml</dc:format>
        <dc:type
           rdf:resource="http://purl.org/dc/dcmitype/StillImage" />
        <dc:title />
      </cc:Work>
    </rdf:RDF>
  </metadata>
  <g
     id="g841"
     transform="matrix(-1.1597907,-0.70545139,0.70545139,-1.1597907,32.741187,160.45338)"
     style="fill:#ff6600">
    <path
       inkscape:connector-curvature="0"
       transform="rotate(15,43.561752,91.130226)"
       d="M 43.561752,91.147638 38.280907,82.000945 H 48.842598 Z"
       id="path823"
       style="opacity:1;fill:#ff6600;fill-opacity:1;stroke:none;stroke-width:0.48899999;stroke-linecap:round;stroke-linejoin:round;stroke-miterlimit:4;stroke-dasharray:none;stroke-dashoffset:0;stroke-opacity:1" />
    <path
       inkscape:connector-curvature="0"
       style="opacity:1;fill:#ff6600;fill-opacity:1;stroke:none;stroke-width:0.48899999;stroke-linecap:round;stroke-linejoin:round;stroke-miterlimit:4;stroke-dasharray:none;stroke-dashoffset:0;stroke-opacity:1"
       id="path825"
       d="M 43.561752,91.147638 38.280907,82.000945 H 48.842598 Z"
       transform="rotate(-45,46.683403,90.763279)" />
    <path
       inkscape:connector-curvature="0"
       transform="rotate(-105,46.169814,90.823651)"
       d="M 43.561752,91.147638 38.280907,82.000945 H 48.842598 Z"
       id="path827"
       style="opacity:1;fill:#ff6600;fill-opacity:1;stroke:none;stroke-width:0.48899999;stroke-linecap:round;stroke-linejoin:round;stroke-miterlimit:4;stroke-dasharray:none;stroke-dashoffset:0;stroke-opacity:1" />
    <path
       inkscape:connector-curvature="0"
       style="opacity:1;fill:#ff6600;fill-opacity:1;stroke:none;stroke-width:0.48899999;stroke-linecap:round;stroke-linejoin:round;stroke-miterlimit:4;stroke-dasharray:none;stroke-dashoffset:0;stroke-opacity:1"
       id="path829"
       d="M 43.561752,91.147638 38.280907,82.000945 H 48.842598 Z"
       transform="rotate(-165,45.971576,90.846954)" />
    <path
       inkscape:connector-curvature="0"
       transform="rotate(135,45.801345,90.866965)"
       d="M 43.561752,91.147638 38.280907,82.000945 H 48.842598 Z"
       id="path831"
       style="opacity:1;fill:#ff6600;fill-opacity:1;stroke:none;stroke-width:0.48899999;stroke-linecap:round;stroke-linejoin:round;stroke-miterlimit:4;stroke-dasharray:none;stroke-dashoffset:0;stroke-opacity:1" />
    <path
       inkscape:connector-curvature="0"
       style="opacity:1;fill:#ff6600;fill-opacity:1;stroke:none;stroke-width:0.48899999;stroke-linecap:round;stroke-linejoin:round;stroke-miterlimit:4;stroke-dasharray:none;stroke-dashoffset:0;stroke-opacity:1"
       id="path833"
       d="M 43.561752,91.147638 38.280907,82.000945 H 48.842598 Z"
       transform="rotate(75,45.524103,90.899555)" />
  </g>
  <path
     inkscape:connector-curvature="0"
     id="path1642"
     style="font-style:normal;font-variant:normal;font-weight:normal;font-stretch:normal;font-size:medium;line-height:125%;font-family:'Eras Bold ITC';-inkscape-font-specification:'Eras Bold ITC';letter-spacing:0px;word-spacing:0px;fill:#000000;fill-opacity:1;stroke:none;stroke-width:0.65286827px;stroke-linecap:butt;stroke-linejoin:miter;stroke-opacity:1"
     d="m 59.169685,31.107119 q 0.242287,-2.244237 0.382539,-4.042171 0.140255,-1.797939 0.242287,-4.169685 0.102008,-2.371747 0.153012,-4.998524 0.051,-2.639527 0.051,-4.195189 1.593916,0.03827 2.57577,0.03827 1.020106,0 2.486509,-0.05098 1.466404,-0.06378 2.856298,-0.06378 1.632173,0 2.907306,0.127522 0.956349,0.08925 1.73418,0.369792 0.790583,0.280529 1.326139,0.688573 0.535556,0.395287 0.892593,0.892588 0.357038,0.497302 0.548309,1.173124 0.204015,0.663069 0.204015,1.42815 0,0.85434 -0.216773,1.606671 -0.216772,0.739576 -0.688569,1.402642 -0.459048,0.650321 -1.173122,1.134868 -0.701326,0.471803 -1.976458,0.969104 l 0.663065,1.619428 q 0.280529,0.675815 0.599312,1.37714 l 1.708678,3.736142 q 0.114765,0.242288 0.408045,0.95635 -2.10397,-0.02553 -2.830798,-0.02553 -0.918094,0 -3.009315,0.02553 -0.204015,-0.663068 -0.739575,-2.461007 -0.216774,-0.752327 -0.369791,-1.16037 -0.306031,-0.905346 -0.905343,-2.537516 l -1.313389,-3.608625 q 0.688572,0.127522 1.351644,0.127522 0.930847,0 1.683175,-0.280531 0.76508,-0.280532 1.147619,-0.867088 0.395291,-0.586563 0.395291,-1.236884 0,-0.548307 -0.293282,-0.95635 -0.293278,-0.420791 -0.930844,-0.624813 -0.624817,-0.204016 -1.938203,-0.204016 -0.446299,0 -0.930848,0.02553 -0.4718,0.01283 -1.109366,0.02553 -0.165769,2.614026 -0.293281,6.375671 -0.127523,3.761643 -0.16577,7.383021 -2.129473,-0.02553 -2.76704,-0.02553 -0.739576,0 -2.665027,0.02553 z" />
  <path
     inkscape:connector-curvature="0"
     id="path1644"
     style="font-style:normal;font-variant:normal;font-weight:normal;font-stretch:normal;font-size:medium;line-height:125%;font-family:'Eras Bold ITC';-inkscape-font-specification:'Eras Bold ITC';letter-spacing:0px;word-spacing:0px;fill:#000000;fill-opacity:1;stroke:none;stroke-width:0.65286827px;stroke-linecap:butt;stroke-linejoin:miter;stroke-opacity:1"
     d="m 77.66616,13.70155 q 1.989209,0.02553 2.805295,0.02553 1.020105,0 2.716034,-0.02553 l -0.382542,5.419316 q -0.114765,1.53016 -0.178526,2.869051 -0.051,1.338888 -0.051,1.848943 0,0.969104 0.140279,1.61942 0.140255,0.650313 0.510052,1.109365 0.369789,0.446294 1.020107,0.675816 0.663069,0.229531 1.377143,0.229531 0.612065,0 1.147621,-0.14028 0.420794,-0.114764 0.752329,-0.318783 0.293281,-0.191283 0.510053,-0.446293 0.267778,-0.306034 0.471801,-0.765083 0.204015,-0.433544 0.30603,-1.122119 0.114766,-0.701323 0.306034,-3.187831 0.165769,-2.116723 0.255025,-3.876404 0.07652,-1.708682 0.140255,-3.914659 1.925453,0.02553 3.034821,0.02553 l 2.588515,-0.02553 -0.624817,9.053444 q -0.01284,0.255029 -0.01284,0.420797 -0.05096,2.652279 -0.331533,3.74889 -0.267782,1.083864 -0.905347,1.8872 -0.637565,0.803334 -1.86169,1.453651 -1.224127,0.637564 -2.779791,0.905345 -1.555662,0.267779 -3.14958,0.267779 -1.428149,0 -2.754286,-0.204015 -1.224128,-0.204016 -2.205982,-0.586563 -0.981852,-0.395294 -1.708679,-0.918098 -0.663068,-0.484552 -1.020105,-0.981853 -0.357037,-0.510054 -0.561061,-1.211379 -0.229529,-0.790576 -0.229529,-1.695921 0,-0.306034 0.02549,-0.918098 0.02549,-0.624814 0.114764,-1.785189 l 0.16577,-2.040213 q 0.06376,-0.803336 0.140254,-2.358998 z" />
  <path
     inkscape:connector-curvature="0"
     id="path1646"
     style="font-style:normal;font-variant:normal;font-weight:normal;font-stretch:normal;font-size:medium;line-height:125%;font-family:'Eras Bold ITC';-inkscape-font-specification:'Eras Bold ITC';letter-spacing:0px;word-spacing:0px;fill:#000000;fill-opacity:1;stroke:none;stroke-width:0.65286827px;stroke-linecap:butt;stroke-linejoin:miter;stroke-opacity:1"
     d="m 96.353421,31.107119 q 0.267782,-2.58852 0.36979,-4.156931 0.153012,-2.320746 0.293284,-6.37567 0.140258,-4.067678 0.140258,-5.470326 V 13.70155 q 3.838147,0.02553 7.140737,0.02553 3.3281,0 6.40117,-0.02553 -0.20401,2.932802 -0.20401,3.838147 l -1.10936,-0.03825 -0.8926,-0.01283 -0.89259,-0.01284 h -2.51201 q -0.43356,0 -2.53752,0.02553 l -0.11477,2.971061 1.84895,0.03825 h 2.06571 q 0.89259,0 2.72879,-0.03825 -0.14026,2.410004 -0.14026,3.774393 -2.05298,-0.06378 -3.04757,-0.06378 -1.68318,0 -3.67238,0.06378 l -0.12752,4.590482 -0.0129,1.708679 v 0.561054 l -2.741533,-0.02553 q -0.318784,0 -2.983813,0.02553 z" />
  <path
     inkscape:connector-curvature="0"
     id="path1648"
     style="font-style:normal;font-variant:normal;font-weight:normal;font-stretch:normal;font-size:medium;line-height:125%;font-family:'Eras Bold ITC';-inkscape-font-specification:'Eras Bold ITC';letter-spacing:0px;word-spacing:0px;fill:#000000;fill-opacity:1;stroke:none;stroke-width:0.65286827px;stroke-linecap:butt;stroke-linejoin:miter;stroke-opacity:1"
     d="m 117.0424,31.107119 q 0.63757,-6.197145 0.76508,-13.643925 l -5.43207,0.140255 0.0638,-1.415397 q 0.051,-1.134868 0.0765,-2.48651 3.62138,0.02553 8.44138,0.02553 l 3.14959,-0.01284 h 3.06031 l 1.65768,-0.01283 -0.0765,1.236878 q -0.051,0.994607 -0.0765,1.644921 -0.0129,0.650315 -0.0129,0.981856 -2.72878,-0.127523 -4.50121,-0.127523 h -0.8926 q -0.19127,2.256985 -0.29327,4.169686 -0.14029,2.741538 -0.21678,5.330055 -0.0765,2.575774 -0.0765,4.169689 -2.09121,-0.02553 -2.70328,-0.02553 -0.54831,0 -2.9328,0.02553 z" />
  <path
     inkscape:connector-curvature="0"
     id="path1650"
     style="font-style:normal;font-variant:normal;font-weight:normal;font-stretch:normal;font-size:medium;line-height:125%;font-family:'Eras Bold ITC';-inkscape-font-specification:'Eras Bold ITC';letter-spacing:0px;word-spacing:0px;fill:#000000;fill-opacity:1;stroke:none;stroke-width:0.65286827px;stroke-linecap:butt;stroke-linejoin:miter;stroke-opacity:1"
     d="m 129.88718,31.107119 q 0.31878,-3.289845 0.45904,-5.508577 0.15302,-2.218728 0.29328,-5.891111 0.15301,-3.685144 0.15301,-4.883763 l -0.0128,-1.122118 q 3.00931,0.02553 7.28101,0.02553 3.94017,0 6.94948,-0.02553 l -0.0255,0.420794 q -0.0129,0.153011 -0.0638,1.109366 l -0.0765,1.389892 q -0.0255,0.446301 -0.0255,0.905346 -2.46101,-0.102008 -4.13143,-0.102008 -1.83619,0 -2.48652,0.01283 -0.63756,0 -2.00196,0.05098 l -0.15301,2.920052 q 1.50466,0.03825 3.50663,0.03825 0.71407,0 3.79989,-0.08925 -0.12753,1.632171 -0.24226,3.889156 -2.20598,-0.02553 -3.39186,-0.02553 -1.75968,0 -3.94016,0.08925 l -0.15301,3.09857 h 1.4664 q 0.65032,0 2.69054,-0.03825 l 2.63952,-0.06378 q 0.58656,-0.01284 1.96371,-0.102008 -0.15302,1.8872 -0.25503,3.901907 -3.11132,-0.02553 -6.82196,-0.02553 l -5.61059,0.01283 z" />
  <path
     inkscape:connector-curvature="0"
     id="path1652"
     style="font-style:normal;font-variant:normal;font-weight:normal;font-stretch:normal;font-size:medium;line-height:125%;font-family:'Eras Bold ITC';-inkscape-font-specification:'Eras Bold ITC';letter-spacing:0px;word-spacing:0px;fill:#000000;fill-opacity:1;stroke:none;stroke-width:0.65286827px;stroke-linecap:butt;stroke-linejoin:miter;stroke-opacity:1"
     d="m 145.17742,31.107119 q 1.49192,-1.887195 3.62139,-4.743494 2.14222,-2.856299 3.31535,-4.539479 l -1.50467,-2.537516 q -0.42079,-0.688568 -1.21136,-1.925446 l -1.27514,-1.97646 q -0.47181,-0.739577 -1.05837,-1.683174 1.64494,0.02553 3.36635,0.02553 1.36441,0 2.92007,-0.02553 0.56107,1.109369 1.31339,2.409998 0.76506,1.287888 1.21137,2.244235 0.51006,-0.879837 1.38989,-2.180476 0.87983,-1.313387 1.54292,-2.473757 1.35164,0.02553 2.94554,0.02553 1.03288,0 2.93281,-0.02553 -0.91809,1.313389 -2.72877,3.723387 -1.8107,2.410004 -3.43012,4.756251 2.06572,3.519364 5.61058,8.925931 -2.01469,-0.02553 -3.02207,-0.02553 -1.68317,0 -3.32807,0.02553 -0.49731,-1.020108 -1.40265,-2.57577 -0.8926,-1.568411 -1.55566,-2.881798 -0.49731,0.892594 -1.63217,2.512009 -1.13489,1.61942 -2.00197,2.945559 -1.8617,-0.02553 -2.94556,-0.02553 -1.19863,0 -3.07308,0.02553 z" />
</svg>
